# xmcd
#
# Track frame offsets:
# 150
# 21486
# 34733
# 47876
# 60078
# 71238
# 83527
# 99879
# 113770
# 129058
#
# Disc length: 2000 seconds
#
# Revision: 0
# Processed by: cddbd v1.5.2PL0 Copyright (c) Steve Scherf et al.
# Submitted via: Axialis_AX_CDPlayer 2.6
#
DISCID=7407ce0a
DTITLE=Waylon Jennings - What Goes Around Comes Around
DYEAR=1900
DGENRE=
TTITLE0=I Ain't Livin' Long Like This
TTITLE1=What Goes Around
TTITLE2=Another Man's Fool
TTITLE3=I Got The Train Sittin' Waitin'
TTITLE4=It's The Whole World Gone Crazy
TTITLE5=Ivory Tower
TTITLE6=Out Among The Stars
TTITLE7=Come With Me
TTITLE8=If You See Her
TTITLE9=Old Love, New Eyes
EXTD=www.waylon.com
EXTT0=
EXTT1=
EXTT2=
EXTT3=
EXTT4=
EXTT5=
EXTT6=
EXTT7=
EXTT8=
EXTT9=
PLAYORDER=
